<mxfile host="app.diagrams.net" modified="2024-07-24T13:17:44.248Z" agent="Mozilla/5.0 (Windows NT 10.0; Win64; x64) AppleWebKit/537.36 (KHTML, like Gecko) Chrome/126.0.0.0 Safari/537.36" version="24.6.3" etag="icWB6ebHsPTdqKwwd7ra" type="device">
  <diagram id="YKhcXS4IJp9A0wBSg-0L" name="Page-1">
    <mxGraphModel dx="2284" dy="1880" grid="1" gridSize="10" guides="1" tooltips="1" connect="1" arrows="1" fold="1" page="1" pageScale="1" pageWidth="850" pageHeight="1100" math="0" shadow="0">
      <root>
        <mxCell id="0" />
        <mxCell id="1" parent="0" />
        <mxCell id="JwieALacqzVxdIfjyQ0a-1" value="" style="rounded=0;whiteSpace=wrap;html=1;" vertex="1" parent="1">
          <mxGeometry x="-50" y="-430" width="760" height="860" as="geometry" />
        </mxCell>
        <mxCell id="JwieALacqzVxdIfjyQ0a-2" value="VPC" style="points=[[0,0],[0.25,0],[0.5,0],[0.75,0],[1,0],[1,0.25],[1,0.5],[1,0.75],[1,1],[0.75,1],[0.5,1],[0.25,1],[0,1],[0,0.75],[0,0.5],[0,0.25]];outlineConnect=0;gradientColor=none;html=1;whiteSpace=wrap;fontSize=12;fontStyle=0;container=1;pointerEvents=0;collapsible=0;recursiveResize=0;shape=mxgraph.aws4.group;grIcon=mxgraph.aws4.group_vpc2;strokeColor=#8C4FFF;fillColor=none;verticalAlign=top;align=left;spacingLeft=30;fontColor=#AAB7B8;dashed=0;" vertex="1" parent="1">
          <mxGeometry x="-30" y="-200" width="720" height="610" as="geometry" />
        </mxCell>
        <mxCell id="JwieALacqzVxdIfjyQ0a-3" value="Availability Zone A" style="fillColor=none;strokeColor=#147EBA;dashed=1;verticalAlign=top;fontStyle=0;fontColor=#147EBA;whiteSpace=wrap;html=1;" vertex="1" parent="JwieALacqzVxdIfjyQ0a-2">
          <mxGeometry x="60" y="80" width="200" height="480" as="geometry" />
        </mxCell>
        <mxCell id="JwieALacqzVxdIfjyQ0a-4" value="Availability Zone B" style="fillColor=none;strokeColor=#147EBA;dashed=1;verticalAlign=top;fontStyle=0;fontColor=#147EBA;whiteSpace=wrap;html=1;" vertex="1" parent="JwieALacqzVxdIfjyQ0a-2">
          <mxGeometry x="470" y="80" width="200" height="480" as="geometry" />
        </mxCell>
        <mxCell id="JwieALacqzVxdIfjyQ0a-7" value="" style="sketch=0;outlineConnect=0;fontColor=#232F3E;gradientColor=none;fillColor=#8C4FFF;strokeColor=none;dashed=0;verticalLabelPosition=bottom;verticalAlign=top;align=center;html=1;fontSize=12;fontStyle=0;aspect=fixed;pointerEvents=1;shape=mxgraph.aws4.application_load_balancer;" vertex="1" parent="JwieALacqzVxdIfjyQ0a-2">
          <mxGeometry x="325.5" y="200" width="78" height="78" as="geometry" />
        </mxCell>
        <mxCell id="JwieALacqzVxdIfjyQ0a-20" style="edgeStyle=orthogonalEdgeStyle;rounded=0;orthogonalLoop=1;jettySize=auto;html=1;" edge="1" parent="JwieALacqzVxdIfjyQ0a-2" source="JwieALacqzVxdIfjyQ0a-8" target="JwieALacqzVxdIfjyQ0a-7">
          <mxGeometry relative="1" as="geometry" />
        </mxCell>
        <mxCell id="JwieALacqzVxdIfjyQ0a-8" value="WAF" style="sketch=0;points=[[0,0,0],[0.25,0,0],[0.5,0,0],[0.75,0,0],[1,0,0],[0,1,0],[0.25,1,0],[0.5,1,0],[0.75,1,0],[1,1,0],[0,0.25,0],[0,0.5,0],[0,0.75,0],[1,0.25,0],[1,0.5,0],[1,0.75,0]];outlineConnect=0;fontColor=#232F3E;fillColor=#DD344C;strokeColor=#ffffff;dashed=0;verticalLabelPosition=bottom;verticalAlign=top;align=center;html=1;fontSize=12;fontStyle=0;aspect=fixed;shape=mxgraph.aws4.resourceIcon;resIcon=mxgraph.aws4.waf;" vertex="1" parent="JwieALacqzVxdIfjyQ0a-2">
          <mxGeometry x="325.5" y="80" width="78" height="78" as="geometry" />
        </mxCell>
        <mxCell id="JwieALacqzVxdIfjyQ0a-9" value="Public subnet" style="points=[[0,0],[0.25,0],[0.5,0],[0.75,0],[1,0],[1,0.25],[1,0.5],[1,0.75],[1,1],[0.75,1],[0.5,1],[0.25,1],[0,1],[0,0.75],[0,0.5],[0,0.25]];outlineConnect=0;gradientColor=none;html=1;whiteSpace=wrap;fontSize=12;fontStyle=0;container=1;pointerEvents=0;collapsible=0;recursiveResize=0;shape=mxgraph.aws4.group;grIcon=mxgraph.aws4.group_security_group;grStroke=0;strokeColor=#7AA116;fillColor=#F2F6E8;verticalAlign=top;align=left;spacingLeft=30;fontColor=#248814;dashed=0;" vertex="1" parent="JwieALacqzVxdIfjyQ0a-2">
          <mxGeometry x="95" y="174" width="130" height="130" as="geometry" />
        </mxCell>
        <mxCell id="JwieALacqzVxdIfjyQ0a-10" value="Public subnet" style="points=[[0,0],[0.25,0],[0.5,0],[0.75,0],[1,0],[1,0.25],[1,0.5],[1,0.75],[1,1],[0.75,1],[0.5,1],[0.25,1],[0,1],[0,0.75],[0,0.5],[0,0.25]];outlineConnect=0;gradientColor=none;html=1;whiteSpace=wrap;fontSize=12;fontStyle=0;container=1;pointerEvents=0;collapsible=0;recursiveResize=0;shape=mxgraph.aws4.group;grIcon=mxgraph.aws4.group_security_group;grStroke=0;strokeColor=#7AA116;fillColor=#F2F6E8;verticalAlign=top;align=left;spacingLeft=30;fontColor=#248814;dashed=0;" vertex="1" parent="JwieALacqzVxdIfjyQ0a-2">
          <mxGeometry x="505" y="174" width="130" height="130" as="geometry" />
        </mxCell>
        <mxCell id="JwieALacqzVxdIfjyQ0a-11" value="Private subnet" style="points=[[0,0],[0.25,0],[0.5,0],[0.75,0],[1,0],[1,0.25],[1,0.5],[1,0.75],[1,1],[0.75,1],[0.5,1],[0.25,1],[0,1],[0,0.75],[0,0.5],[0,0.25]];outlineConnect=0;gradientColor=none;html=1;whiteSpace=wrap;fontSize=12;fontStyle=0;container=1;pointerEvents=0;collapsible=0;recursiveResize=0;shape=mxgraph.aws4.group;grIcon=mxgraph.aws4.group_security_group;grStroke=0;strokeColor=#00A4A6;fillColor=#E6F6F7;verticalAlign=top;align=left;spacingLeft=30;fontColor=#147EBA;dashed=0;" vertex="1" parent="JwieALacqzVxdIfjyQ0a-2">
          <mxGeometry x="95" y="340" width="130" height="130" as="geometry" />
        </mxCell>
        <mxCell id="JwieALacqzVxdIfjyQ0a-13" value="" style="sketch=0;outlineConnect=0;fontColor=#232F3E;gradientColor=none;fillColor=#ED7100;strokeColor=none;dashed=0;verticalLabelPosition=bottom;verticalAlign=top;align=center;html=1;fontSize=12;fontStyle=0;aspect=fixed;pointerEvents=1;shape=mxgraph.aws4.ecs_task;" vertex="1" parent="JwieALacqzVxdIfjyQ0a-11">
          <mxGeometry x="46.5" y="41" width="37" height="48" as="geometry" />
        </mxCell>
        <mxCell id="JwieALacqzVxdIfjyQ0a-12" value="Private subnet" style="points=[[0,0],[0.25,0],[0.5,0],[0.75,0],[1,0],[1,0.25],[1,0.5],[1,0.75],[1,1],[0.75,1],[0.5,1],[0.25,1],[0,1],[0,0.75],[0,0.5],[0,0.25]];outlineConnect=0;gradientColor=none;html=1;whiteSpace=wrap;fontSize=12;fontStyle=0;container=1;pointerEvents=0;collapsible=0;recursiveResize=0;shape=mxgraph.aws4.group;grIcon=mxgraph.aws4.group_security_group;grStroke=0;strokeColor=#00A4A6;fillColor=#E6F6F7;verticalAlign=top;align=left;spacingLeft=30;fontColor=#147EBA;dashed=0;" vertex="1" parent="JwieALacqzVxdIfjyQ0a-2">
          <mxGeometry x="505" y="340" width="130" height="130" as="geometry" />
        </mxCell>
        <mxCell id="JwieALacqzVxdIfjyQ0a-14" value="" style="sketch=0;outlineConnect=0;fontColor=#232F3E;gradientColor=none;fillColor=#ED7100;strokeColor=none;dashed=0;verticalLabelPosition=bottom;verticalAlign=top;align=center;html=1;fontSize=12;fontStyle=0;aspect=fixed;pointerEvents=1;shape=mxgraph.aws4.ecs_task;" vertex="1" parent="JwieALacqzVxdIfjyQ0a-12">
          <mxGeometry x="55" y="41" width="37" height="48" as="geometry" />
        </mxCell>
        <mxCell id="JwieALacqzVxdIfjyQ0a-15" value="" style="rounded=1;arcSize=10;dashed=1;strokeColor=#F59D56;fillColor=none;gradientColor=none;dashPattern=8 4;strokeWidth=2;" vertex="1" parent="JwieALacqzVxdIfjyQ0a-2">
          <mxGeometry x="30" y="330" width="620" height="160" as="geometry" />
        </mxCell>
        <mxCell id="JwieALacqzVxdIfjyQ0a-16" value="" style="sketch=0;points=[[0,0,0],[0.25,0,0],[0.5,0,0],[0.75,0,0],[1,0,0],[0,1,0],[0.25,1,0],[0.5,1,0],[0.75,1,0],[1,1,0],[0,0.25,0],[0,0.5,0],[0,0.75,0],[1,0.25,0],[1,0.5,0],[1,0.75,0]];outlineConnect=0;fontColor=#232F3E;fillColor=#ED7100;strokeColor=#ffffff;dashed=0;verticalLabelPosition=bottom;verticalAlign=top;align=center;html=1;fontSize=12;fontStyle=0;aspect=fixed;shape=mxgraph.aws4.resourceIcon;resIcon=mxgraph.aws4.ecs;" vertex="1" parent="JwieALacqzVxdIfjyQ0a-2">
          <mxGeometry x="30" y="330" width="28" height="28" as="geometry" />
        </mxCell>
        <mxCell id="JwieALacqzVxdIfjyQ0a-26" style="edgeStyle=orthogonalEdgeStyle;rounded=0;orthogonalLoop=1;jettySize=auto;html=1;entryX=0.5;entryY=0;entryDx=0;entryDy=0;entryPerimeter=0;" edge="1" parent="JwieALacqzVxdIfjyQ0a-2" target="JwieALacqzVxdIfjyQ0a-8">
          <mxGeometry relative="1" as="geometry">
            <mxPoint x="364.5" y="37.99921430198128" as="sourcePoint" />
          </mxGeometry>
        </mxCell>
        <mxCell id="JwieALacqzVxdIfjyQ0a-27" style="edgeStyle=orthogonalEdgeStyle;rounded=0;orthogonalLoop=1;jettySize=auto;html=1;entryX=0.887;entryY=0.313;entryDx=0;entryDy=0;entryPerimeter=0;" edge="1" parent="JwieALacqzVxdIfjyQ0a-2" source="JwieALacqzVxdIfjyQ0a-7" target="JwieALacqzVxdIfjyQ0a-15">
          <mxGeometry relative="1" as="geometry">
            <Array as="points">
              <mxPoint x="580" y="240" />
            </Array>
          </mxGeometry>
        </mxCell>
        <mxCell id="JwieALacqzVxdIfjyQ0a-28" style="edgeStyle=orthogonalEdgeStyle;rounded=0;orthogonalLoop=1;jettySize=auto;html=1;entryX=0.21;entryY=0.313;entryDx=0;entryDy=0;entryPerimeter=0;" edge="1" parent="JwieALacqzVxdIfjyQ0a-2" source="JwieALacqzVxdIfjyQ0a-7" target="JwieALacqzVxdIfjyQ0a-15">
          <mxGeometry relative="1" as="geometry">
            <Array as="points">
              <mxPoint x="160" y="240" />
            </Array>
          </mxGeometry>
        </mxCell>
        <mxCell id="JwieALacqzVxdIfjyQ0a-25" style="edgeStyle=orthogonalEdgeStyle;rounded=0;orthogonalLoop=1;jettySize=auto;html=1;" edge="1" parent="1" source="JwieALacqzVxdIfjyQ0a-22">
          <mxGeometry relative="1" as="geometry">
            <mxPoint x="334.5" y="-230.99921430198128" as="targetPoint" />
          </mxGeometry>
        </mxCell>
        <mxCell id="JwieALacqzVxdIfjyQ0a-22" value="" style="sketch=0;points=[[0,0,0],[0.25,0,0],[0.5,0,0],[0.75,0,0],[1,0,0],[0,1,0],[0.25,1,0],[0.5,1,0],[0.75,1,0],[1,1,0],[0,0.25,0],[0,0.5,0],[0,0.75,0],[1,0.25,0],[1,0.5,0],[1,0.75,0]];outlineConnect=0;fontColor=#232F3E;fillColor=#8C4FFF;strokeColor=#ffffff;dashed=0;verticalLabelPosition=bottom;verticalAlign=top;align=center;html=1;fontSize=12;fontStyle=0;aspect=fixed;shape=mxgraph.aws4.resourceIcon;resIcon=mxgraph.aws4.route_53;" vertex="1" parent="1">
          <mxGeometry x="295.5" y="-380" width="78" height="78" as="geometry" />
        </mxCell>
        <mxCell id="JwieALacqzVxdIfjyQ0a-24" style="edgeStyle=orthogonalEdgeStyle;rounded=0;orthogonalLoop=1;jettySize=auto;html=1;" edge="1" parent="1" source="JwieALacqzVxdIfjyQ0a-23" target="JwieALacqzVxdIfjyQ0a-22">
          <mxGeometry relative="1" as="geometry" />
        </mxCell>
        <mxCell id="JwieALacqzVxdIfjyQ0a-23" value="Users" style="sketch=0;outlineConnect=0;fontColor=#232F3E;gradientColor=none;fillColor=#232F3D;strokeColor=none;dashed=0;verticalLabelPosition=bottom;verticalAlign=top;align=center;html=1;fontSize=12;fontStyle=0;aspect=fixed;pointerEvents=1;shape=mxgraph.aws4.users;" vertex="1" parent="1">
          <mxGeometry x="50" y="-380" width="78" height="78" as="geometry" />
        </mxCell>
        <mxCell id="JwieALacqzVxdIfjyQ0a-29" value="Internet&#xa;gateway" style="sketch=0;outlineConnect=0;fontColor=#232F3E;gradientColor=none;strokeColor=#232F3E;fillColor=#ffffff;dashed=0;verticalLabelPosition=bottom;verticalAlign=top;align=center;html=1;fontSize=12;fontStyle=0;aspect=fixed;shape=mxgraph.aws4.resourceIcon;resIcon=mxgraph.aws4.internet_gateway;" vertex="1" parent="1">
          <mxGeometry x="304.5" y="-240" width="60" height="60" as="geometry" />
        </mxCell>
      </root>
    </mxGraphModel>
  </diagram>
</mxfile>
